<?xml version="1.0" encoding="UTF-8" standalone="no"?>
<!DOCTYPE svg PUBLIC "-//W3C//DTD SVG 1.1//EN" "http://www.w3.org/Graphics/SVG/1.1/DTD/svg11.dtd">
<svg xmlns="http://www.w3.org/2000/svg" version="1.1" viewBox="170.00 170.00 684.00 684.00">
<g stroke-width="2.00" fill="none" stroke-linecap="butt">
<path stroke="#839aa3" vector-effect="non-scaling-stroke" d="
  M 426.13 812.62
  Q 487.42 829.56 550.26 822.27
  Q 599.95 816.51 642.49 796.74
  Q 735.71 753.43 787.35 662.92
  Q 803.83 634.04 813.87 602.32
  C 826.34 562.91 830.06 522.22 826.48 481.00
  Q 823.85 450.71 813.55 419.58
  Q 775.59 304.86 671.92 243.32
  Q 605.88 204.12 527.24 200.82
  C 516.35 200.36 500.02 200.42 487.60 201.48
  Q 446.43 204.98 409.74 217.23
  C 346.18 238.44 291.61 278.69 252.73 333.67
  Q 243.19 347.16 239.79 352.80
  Q 223.76 379.43 213.70 408.84
  Q 206.30 430.44 203.72 441.24
  Q 199.14 460.43 196.86 484.53
  C 192.47 530.86 200.33 578.77 217.30 621.98
  C 232.55 660.81 253.70 695.47 282.15 725.10
  Q 301.38 745.13 317.93 758.09
  C 348.75 782.22 387.21 801.87 426.13 812.62"
/>
<path stroke="#835a3e" vector-effect="non-scaling-stroke" d="
  M 230.45 480.16
  Q 224.02 538.58 241.68 593.06
  Q 267.43 672.52 330.84 726.57
  C 371.32 761.08 423.23 783.32 475.24 790.36
  Q 531.47 797.97 587.80 782.49
  C 629.35 771.06 668.73 748.29 700.69 719.46
  C 732.75 690.53 757.11 655.09 774.04 615.54
  C 780.43 600.63 784.94 584.93 788.56 569.12
  Q 793.18 548.91 794.07 528.23"
/>
<path stroke="#837346" vector-effect="non-scaling-stroke" d="
  M 794.07 528.23
  Q 795.10 506.19 794.53 494.24
  Q 793.38 470.12 786.15 444.60
  Q 783.49 435.19 780.31 425.46
  Q 766.70 383.80 740.29 347.96
  Q 699.39 292.45 637.87 262.32
  Q 637.19 261.98 636.62 261.87
  Q 635.66 261.67 635.28 261.83
  Q 621.58 267.59 607.47 275.11"
/>
<path stroke="#835a3e" vector-effect="non-scaling-stroke" d="
  M 607.47 275.11
  Q 602.08 278.15 598.04 281.30
  Q 590.77 286.97 584.14 292.95
  A 0.89 0.88 -57.5 0 0 584.47 294.45
  Q 631.79 309.34 668.36 341.89
  C 693.36 364.14 714.77 394.25 727.44 425.64
  C 736.24 447.43 741.88 470.16 743.43 493.60"
/>
<path stroke="#837346" vector-effect="non-scaling-stroke" d="
  M 743.43 493.60
  Q 744.07 515.84 743.69 521.76
  Q 740.81 566.73 722.48 607.48
  Q 718.38 616.59 713.31 625.24
  C 669.84 699.42 588.65 747.81 501.75 743.29
  C 466.61 741.46 434.18 733.00 403.29 716.14
  Q 353.34 688.89 320.83 642.21
  Q 291.59 600.25 282.82 548.25
  Q 279.17 526.62 279.55 508.23"
/>
<path stroke="#835a3e" vector-effect="non-scaling-stroke" d="
  M 279.55 508.23
  Q 279.38 490.33 281.87 475.28
  Q 288.40 435.97 308.31 399.97
  Q 319.90 379.03 338.38 358.88
  Q 373.74 320.34 420.82 301.62
  Q 463.49 284.65 509.27 283.31
  C 518.89 283.03 529.84 284.03 540.18 284.50
  A 1.30 1.28 -69.3 0 0 541.28 283.99
  Q 550.11 272.22 561.71 262.43"
/>
<path stroke="#837346" vector-effect="non-scaling-stroke" d="
  M 561.71 262.43
  Q 574.34 251.97 588.95 244.16
  Q 589.27 243.99 589.45 243.85
  A 0.72 0.72 0.0 0 0 589.18 242.57
  C 577.20 239.94 564.79 236.92 553.16 235.42
  Q 518.78 230.97 487.99 233.51
  Q 449.22 236.72 408.91 251.86
  Q 383.63 261.36 360.88 275.89
  Q 316.43 304.27 284.76 346.44
  Q 271.53 364.05 264.14 376.91
  Q 246.40 407.81 236.76 445.27
  Q 231.68 464.99 230.45 480.16"
/>
<path stroke="#ff9835" vector-effect="non-scaling-stroke" d="
  M 561.71 262.43
  Q 545.50 259.20 536.51 258.52
  Q 463.11 252.96 396.90 284.38
  Q 383.87 290.56 372.09 298.90
  C 365.67 303.44 358.44 308.01 352.73 312.45
  Q 328.89 331.00 309.76 354.34
  C 302.14 363.63 294.62 375.47 288.69 385.46
  Q 274.13 409.98 265.08 438.49
  Q 264.10 441.57 263.06 446.36
  C 261.55 453.29 259.48 459.81 259.40 466.99
  C 259.35 471.09 260.95 474.05 263.48 477.02
  C 268.16 482.49 272.38 488.32 277.35 493.53
  Q 278.77 495.01 279.09 496.38
  C 279.92 499.88 279.24 504.14 279.55 508.23"
/>
<path stroke="#ff9835" vector-effect="non-scaling-stroke" d="
  M 743.43 493.60
  Q 746.72 491.87 748.88 489.14
  C 754.60 481.90 760.70 473.85 763.45 464.93
  C 763.79 463.82 763.26 463.12 763.12 462.35
  Q 754.41 415.87 729.82 378.02
  Q 723.01 367.53 711.75 352.79
  Q 705.47 344.57 698.91 337.47
  Q 688.70 326.40 681.96 320.53
  Q 666.75 307.29 645.43 294.23
  Q 637.63 289.45 627.84 284.72
  Q 617.89 279.91 607.47 275.11"
/>
<path stroke="#ff9835" vector-effect="non-scaling-stroke" d="
  M 794.07 528.23
  L 793.71 483.91
  A 1.60 1.60 0.0 0 0 791.30 482.54
  Q 789.54 483.57 789.33 485.38
  Q 789.27 485.93 788.81 486.23
  Q 787.31 487.22 786.79 488.99
  Q 786.66 489.47 786.30 489.83
  Q 778.89 497.31 771.59 504.96
  C 769.24 507.42 768.95 511.57 768.95 514.50
  Q 768.93 530.68 766.85 546.69
  C 765.56 556.65 762.83 567.33 760.40 577.55
  Q 757.88 588.17 754.69 596.67
  Q 748.22 613.91 739.98 630.37
  C 735.82 638.68 730.11 646.57 724.84 654.52
  C 715.35 668.81 702.93 681.92 691.17 693.66
  Q 668.83 715.97 641.26 732.83
  C 634.71 736.83 627.35 740.52 620.23 744.20
  Q 612.10 748.39 603.89 751.51
  C 561.74 767.49 517.58 773.95 473.50 766.22
  Q 449.16 761.95 423.74 753.09
  C 415.55 750.24 407.23 746.16 399.05 742.46
  Q 386.16 736.64 370.91 726.02
  C 352.68 713.33 335.08 699.26 320.87 682.88
  Q 302.68 661.91 291.82 644.41
  Q 275.16 617.55 264.86 584.58
  Q 261.90 575.09 259.92 565.21
  Q 254.10 536.11 253.76 506.36
  C 253.75 505.05 253.26 504.24 251.97 504.01
  A 1.23 1.21 75.7 0 1 251.22 503.56
  Q 249.12 500.87 246.88 498.30
  C 245.75 497.01 244.15 496.36 243.09 494.16
  Q 242.12 492.14 239.57 490.44
  Q 236.86 488.63 232.98 482.90
  A 1.08 1.06 -13.7 0 0 232.19 482.43
  Q 230.31 482.27 230.45 480.16"
/>
<path stroke="#79929c" vector-effect="non-scaling-stroke" d="
  M 465.59 321.26
  Q 439.91 326.51 416.40 338.87
  C 414.79 339.72 415.10 340.45 415.09 342.01
  Q 414.64 427.28 415.03 512.67
  Q 415.03 513.29 415.51 512.90
  L 465.48 472.21"
/>
<path stroke="#839aa3" vector-effect="non-scaling-stroke" d="
  M 465.48 472.21
  C 475.07 465.32 484.61 456.24 489.24 445.48
  C 493.06 436.61 493.20 426.36 493.20 418.00
  Q 493.25 367.74 493.22 317.49
  Q 493.22 316.88 492.61 316.98
  L 465.59 321.26"
/>
<path stroke="#f5f7f0" vector-effect="non-scaling-stroke" d="
  M 465.48 472.21
  Q 465.40 469.65 465.65 467.06
  Q 465.97 463.81 465.94 461.92
  Q 464.78 391.58 465.39 359.62
  Q 465.87 334.13 465.59 321.26"
/>
<path stroke="#1c8785" vector-effect="non-scaling-stroke" d="
  M 705.45 554.50
  C 720.21 502.68 708.35 446.56 679.05 402.17
  Q 669.48 387.68 655.60 373.93
  Q 615.42 334.11 560.19 321.04
  Q 559.70 320.92 559.39 321.32
  C 545.20 339.31 537.58 361.24 532.07 383.23
  Q 531.30 386.32 531.36 388.35
  Q 531.45 391.27 532.49 393.46
  C 538.70 406.55 546.17 421.00 550.60 433.36
  Q 566.26 477.04 550.52 520.74
  C 545.29 535.27 537.52 547.72 526.99 558.73
  A 0.58 0.57 21.8 0 0 527.41 559.70
  L 702.77 559.73
  Q 703.29 559.73 703.53 559.26
  Q 704.85 556.60 705.45 554.50"
/>
<path stroke="#1c8785" vector-effect="non-scaling-stroke" d="
  M 330.31 592.11
  Q 335.45 603.37 342.75 614.26
  A 0.58 0.58 0.0 0 0 343.81 613.92
  Q 343.48 599.43 348.77 585.47
  Q 359.12 558.14 380.13 538.84
  A 3.00 2.98 -21.4 0 0 381.10 536.64
  L 381.04 364.51
  A 0.59 0.59 0.0 0 0 380.12 364.03
  Q 377.36 365.95 374.64 368.40
  C 346.61 393.64 327.13 425.39 317.99 461.92
  Q 314.33 476.52 313.47 483.75
  Q 306.69 540.47 330.31 592.11"
/>
<path stroke="#837346" vector-effect="non-scaling-stroke" d="
  M 493.60 495.86
  L 400.69 571.51"
/>
<path stroke="#835a3e" vector-effect="non-scaling-stroke" d="
  M 400.69 571.51
  C 380.29 590.98 373.15 616.86 379.55 644.22
  A 0.40 0.39 -35.3 0 0 380.27 644.34
  Q 389.37 629.83 402.27 618.41"
/>
<path stroke="#837346" vector-effect="non-scaling-stroke" d="
  M 402.27 618.41
  L 493.73 538.27"
/>
<path stroke="#835a3e" vector-effect="non-scaling-stroke" d="
  M 493.73 538.27
  C 515.82 517.29 529.15 490.89 521.56 460.09
  Q 521.13 458.34 520.56 460.05
  C 518.77 465.38 516.31 469.52 512.99 474.68
  Q 505.17 486.87 493.60 495.86"
/>
<path stroke="#ff9835" vector-effect="non-scaling-stroke" d="
  M 493.73 538.27
  L 493.60 495.86"
/>
<path stroke="#ff9835" vector-effect="non-scaling-stroke" d="
  M 402.27 618.41
  Q 401.18 618.53 401.18 618.26
  Q 401.83 598.25 401.76 578.25
  Q 401.75 574.26 400.69 571.51"
/>
<path stroke="#79929c" vector-effect="non-scaling-stroke" d="
  M 452.05 622.84
  L 426.45 645.69
  A 0.29 0.29 0.0 0 0 426.64 646.20
  Q 537.36 646.33 648.20 646.24
  C 651.76 646.24 652.88 646.61 655.09 644.36
  Q 665.76 633.44 671.41 626.66
  Q 673.10 624.64 674.19 622.19"
/>
<path stroke="#839aa3" vector-effect="non-scaling-stroke" d="
  M 674.19 622.19
  Q 680.02 613.58 685.90 604.89
  C 688.01 601.76 689.78 598.18 691.72 594.87
  A 0.27 0.26 15.4 0 0 691.49 594.47
  L 493.89 594.32
  A 0.97 0.97 0.0 0 1 492.93 593.39
  L 492.73 588.00
  A 0.82 0.82 0.0 0 0 491.36 587.42
  L 452.05 622.84"
/>
<path stroke="#f5f7f0" vector-effect="non-scaling-stroke" d="
  M 674.19 622.19
  C 671.94 619.94 668.22 621.85 665.39 621.85
  Q 562.37 622.03 459.35 621.77
  Q 457.92 621.77 455.75 622.36
  Q 453.90 622.86 452.05 622.84"
/>
<path stroke="#1c8785" vector-effect="non-scaling-stroke" d="
  M 616.03 679.78
  L 407.04 679.66
  Q 406.65 679.66 406.98 679.87
  C 430.29 694.91 457.06 705.97 484.75 709.21
  Q 515.49 712.80 545.90 708.24
  C 566.90 705.09 587.83 696.63 606.33 686.34
  C 609.34 684.66 613.12 682.76 616.25 680.47
  A 0.38 0.38 0.0 0 0 616.03 679.78"
/>
</g>
<path fill="#07354f" d="
  M 426.13 812.62
  C 387.21 801.87 348.75 782.22 317.93 758.09
  Q 301.38 745.13 282.15 725.10
  C 253.70 695.47 232.55 660.81 217.30 621.98
  C 200.33 578.77 192.47 530.86 196.86 484.53
  Q 199.14 460.43 203.72 441.24
  Q 206.30 430.44 213.70 408.84
  Q 223.76 379.43 239.79 352.80
  Q 243.19 347.16 252.73 333.67
  C 291.61 278.69 346.18 238.44 409.74 217.23
  Q 446.43 204.98 487.60 201.48
  C 500.02 200.42 516.35 200.36 527.24 200.82
  Q 605.88 204.12 671.92 243.32
  Q 775.59 304.86 813.55 419.58
  Q 823.85 450.71 826.48 481.00
  C 830.06 522.22 826.34 562.91 813.87 602.32
  Q 803.83 634.04 787.35 662.92
  Q 735.71 753.43 642.49 796.74
  Q 599.95 816.51 550.26 822.27
  Q 487.42 829.56 426.13 812.62
  Z
  M 230.45 480.16
  Q 224.02 538.58 241.68 593.06
  Q 267.43 672.52 330.84 726.57
  C 371.32 761.08 423.23 783.32 475.24 790.36
  Q 531.47 797.97 587.80 782.49
  C 629.35 771.06 668.73 748.29 700.69 719.46
  C 732.75 690.53 757.11 655.09 774.04 615.54
  C 780.43 600.63 784.94 584.93 788.56 569.12
  Q 793.18 548.91 794.07 528.23
  Q 795.10 506.19 794.53 494.24
  Q 793.38 470.12 786.15 444.60
  Q 783.49 435.19 780.31 425.46
  Q 766.70 383.80 740.29 347.96
  Q 699.39 292.45 637.87 262.32
  Q 637.19 261.98 636.62 261.87
  Q 635.66 261.67 635.28 261.83
  Q 621.58 267.59 607.47 275.11
  Q 602.08 278.15 598.04 281.30
  Q 590.77 286.97 584.14 292.95
  A 0.89 0.88 -57.5 0 0 584.47 294.45
  Q 631.79 309.34 668.36 341.89
  C 693.36 364.14 714.77 394.25 727.44 425.64
  C 736.24 447.43 741.88 470.16 743.43 493.60
  Q 744.07 515.84 743.69 521.76
  Q 740.81 566.73 722.48 607.48
  Q 718.38 616.59 713.31 625.24
  C 669.84 699.42 588.65 747.81 501.75 743.29
  C 466.61 741.46 434.18 733.00 403.29 716.14
  Q 353.34 688.89 320.83 642.21
  Q 291.59 600.25 282.82 548.25
  Q 279.17 526.62 279.55 508.23
  Q 279.38 490.33 281.87 475.28
  Q 288.40 435.97 308.31 399.97
  Q 319.90 379.03 338.38 358.88
  Q 373.74 320.34 420.82 301.62
  Q 463.49 284.65 509.27 283.31
  C 518.89 283.03 529.84 284.03 540.18 284.50
  A 1.30 1.28 -69.3 0 0 541.28 283.99
  Q 550.11 272.22 561.71 262.43
  Q 574.34 251.97 588.95 244.16
  Q 589.27 243.99 589.45 243.85
  A 0.72 0.72 0.0 0 0 589.18 242.57
  C 577.20 239.94 564.79 236.92 553.16 235.42
  Q 518.78 230.97 487.99 233.51
  Q 449.22 236.72 408.91 251.86
  Q 383.63 261.36 360.88 275.89
  Q 316.43 304.27 284.76 346.44
  Q 271.53 364.05 264.14 376.91
  Q 246.40 407.81 236.76 445.27
  Q 231.68 464.99 230.45 480.16
  Z
  M 465.59 321.26
  Q 439.91 326.51 416.40 338.87
  C 414.79 339.72 415.10 340.45 415.09 342.01
  Q 414.64 427.28 415.03 512.67
  Q 415.03 513.29 415.51 512.90
  L 465.48 472.21
  C 475.07 465.32 484.61 456.24 489.24 445.48
  C 493.06 436.61 493.20 426.36 493.20 418.00
  Q 493.25 367.74 493.22 317.49
  Q 493.22 316.88 492.61 316.98
  L 465.59 321.26
  Z
  M 705.45 554.50
  C 720.21 502.68 708.35 446.56 679.05 402.17
  Q 669.48 387.68 655.60 373.93
  Q 615.42 334.11 560.19 321.04
  Q 559.70 320.92 559.39 321.32
  C 545.20 339.31 537.58 361.24 532.07 383.23
  Q 531.30 386.32 531.36 388.35
  Q 531.45 391.27 532.49 393.46
  C 538.70 406.55 546.17 421.00 550.60 433.36
  Q 566.26 477.04 550.52 520.74
  C 545.29 535.27 537.52 547.72 526.99 558.73
  A 0.58 0.57 21.8 0 0 527.41 559.70
  L 702.77 559.73
  Q 703.29 559.73 703.53 559.26
  Q 704.85 556.60 705.45 554.50
  Z
  M 330.31 592.11
  Q 335.45 603.37 342.75 614.26
  A 0.58 0.58 0.0 0 0 343.81 613.92
  Q 343.48 599.43 348.77 585.47
  Q 359.12 558.14 380.13 538.84
  A 3.00 2.98 -21.4 0 0 381.10 536.64
  L 381.04 364.51
  A 0.59 0.59 0.0 0 0 380.12 364.03
  Q 377.36 365.95 374.64 368.40
  C 346.61 393.64 327.13 425.39 317.99 461.92
  Q 314.33 476.52 313.47 483.75
  Q 306.69 540.47 330.31 592.11
  Z
  M 493.60 495.86
  L 400.69 571.51
  C 380.29 590.98 373.15 616.86 379.55 644.22
  A 0.40 0.39 -35.3 0 0 380.27 644.34
  Q 389.37 629.83 402.27 618.41
  L 493.73 538.27
  C 515.82 517.29 529.15 490.89 521.56 460.09
  Q 521.13 458.34 520.56 460.05
  C 518.77 465.38 516.31 469.52 512.99 474.68
  Q 505.17 486.87 493.60 495.86
  Z
  M 452.05 622.84
  L 426.45 645.69
  A 0.29 0.29 0.0 0 0 426.64 646.20
  Q 537.36 646.33 648.20 646.24
  C 651.76 646.24 652.88 646.61 655.09 644.36
  Q 665.76 633.44 671.41 626.66
  Q 673.10 624.64 674.19 622.19
  Q 680.02 613.58 685.90 604.89
  C 688.01 601.76 689.78 598.18 691.72 594.87
  A 0.27 0.26 15.4 0 0 691.49 594.47
  L 493.89 594.32
  A 0.97 0.97 0.0 0 1 492.93 593.39
  L 492.73 588.00
  A 0.82 0.82 0.0 0 0 491.36 587.42
  L 452.05 622.84
  Z
  M 616.03 679.78
  L 407.04 679.66
  Q 406.65 679.66 406.98 679.87
  C 430.29 694.91 457.06 705.97 484.75 709.21
  Q 515.49 712.80 545.90 708.24
  C 566.90 705.09 587.83 696.63 606.33 686.34
  C 609.34 684.66 613.12 682.76 616.25 680.47
  A 0.38 0.38 0.0 0 0 616.03 679.78
  Z"
/>
<path fill="#ffb03c" d="
  M 561.71 262.43
  Q 545.50 259.20 536.51 258.52
  Q 463.11 252.96 396.90 284.38
  Q 383.87 290.56 372.09 298.90
  C 365.67 303.44 358.44 308.01 352.73 312.45
  Q 328.89 331.00 309.76 354.34
  C 302.14 363.63 294.62 375.47 288.69 385.46
  Q 274.13 409.98 265.08 438.49
  Q 264.10 441.57 263.06 446.36
  C 261.55 453.29 259.48 459.81 259.40 466.99
  C 259.35 471.09 260.95 474.05 263.48 477.02
  C 268.16 482.49 272.38 488.32 277.35 493.53
  Q 278.77 495.01 279.09 496.38
  C 279.92 499.88 279.24 504.14 279.55 508.23
  Q 279.17 526.62 282.82 548.25
  Q 291.59 600.25 320.83 642.21
  Q 353.34 688.89 403.29 716.14
  C 434.18 733.00 466.61 741.46 501.75 743.29
  C 588.65 747.81 669.84 699.42 713.31 625.24
  Q 718.38 616.59 722.48 607.48
  Q 740.81 566.73 743.69 521.76
  Q 744.07 515.84 743.43 493.60
  Q 746.72 491.87 748.88 489.14
  C 754.60 481.90 760.70 473.85 763.45 464.93
  C 763.79 463.82 763.26 463.12 763.12 462.35
  Q 754.41 415.87 729.82 378.02
  Q 723.01 367.53 711.75 352.79
  Q 705.47 344.57 698.91 337.47
  Q 688.70 326.40 681.96 320.53
  Q 666.75 307.29 645.43 294.23
  Q 637.63 289.45 627.84 284.72
  Q 617.89 279.91 607.47 275.11
  Q 621.58 267.59 635.28 261.83
  Q 635.66 261.67 636.62 261.87
  Q 637.19 261.98 637.87 262.32
  Q 699.39 292.45 740.29 347.96
  Q 766.70 383.80 780.31 425.46
  Q 783.49 435.19 786.15 444.60
  Q 793.38 470.12 794.53 494.24
  Q 795.10 506.19 794.07 528.23
  L 793.71 483.91
  A 1.60 1.60 0.0 0 0 791.30 482.54
  Q 789.54 483.57 789.33 485.38
  Q 789.27 485.93 788.81 486.23
  Q 787.31 487.22 786.79 488.99
  Q 786.66 489.47 786.30 489.83
  Q 778.89 497.31 771.59 504.96
  C 769.24 507.42 768.95 511.57 768.95 514.50
  Q 768.93 530.68 766.85 546.69
  C 765.56 556.65 762.83 567.33 760.40 577.55
  Q 757.88 588.17 754.69 596.67
  Q 748.22 613.91 739.98 630.37
  C 735.82 638.68 730.11 646.57 724.84 654.52
  C 715.35 668.81 702.93 681.92 691.17 693.66
  Q 668.83 715.97 641.26 732.83
  C 634.71 736.83 627.35 740.52 620.23 744.20
  Q 612.10 748.39 603.89 751.51
  C 561.74 767.49 517.58 773.95 473.50 766.22
  Q 449.16 761.95 423.74 753.09
  C 415.55 750.24 407.23 746.16 399.05 742.46
  Q 386.16 736.64 370.91 726.02
  C 352.68 713.33 335.08 699.26 320.87 682.88
  Q 302.68 661.91 291.82 644.41
  Q 275.16 617.55 264.86 584.58
  Q 261.90 575.09 259.92 565.21
  Q 254.10 536.11 253.76 506.36
  C 253.75 505.05 253.26 504.24 251.97 504.01
  A 1.23 1.21 75.7 0 1 251.22 503.56
  Q 249.12 500.87 246.88 498.30
  C 245.75 497.01 244.15 496.36 243.09 494.16
  Q 242.12 492.14 239.57 490.44
  Q 236.86 488.63 232.98 482.90
  A 1.08 1.06 -13.7 0 0 232.19 482.43
  Q 230.31 482.27 230.45 480.16
  Q 231.68 464.99 236.76 445.27
  Q 246.40 407.81 264.14 376.91
  Q 271.53 364.05 284.76 346.44
  Q 316.43 304.27 360.88 275.89
  Q 383.63 261.36 408.91 251.86
  Q 449.22 236.72 487.99 233.51
  Q 518.78 230.97 553.16 235.42
  C 564.79 236.92 577.20 239.94 589.18 242.57
  A 0.72 0.72 0.0 0 1 589.45 243.85
  Q 589.27 243.99 588.95 244.16
  Q 574.34 251.97 561.71 262.43
  Z"
/>
<path fill="#ff7f2d" d="
  M 561.71 262.43
  Q 550.11 272.22 541.28 283.99
  A 1.30 1.28 -69.3 0 1 540.18 284.50
  C 529.84 284.03 518.89 283.03 509.27 283.31
  Q 463.49 284.65 420.82 301.62
  Q 373.74 320.34 338.38 358.88
  Q 319.90 379.03 308.31 399.97
  Q 288.40 435.97 281.87 475.28
  Q 279.38 490.33 279.55 508.23
  C 279.24 504.14 279.92 499.88 279.09 496.38
  Q 278.77 495.01 277.35 493.53
  C 272.38 488.32 268.16 482.49 263.48 477.02
  C 260.95 474.05 259.35 471.09 259.40 466.99
  C 259.48 459.81 261.55 453.29 263.06 446.36
  Q 264.10 441.57 265.08 438.49
  Q 274.13 409.98 288.69 385.46
  C 294.62 375.47 302.14 363.63 309.76 354.34
  Q 328.89 331.00 352.73 312.45
  C 358.44 308.01 365.67 303.44 372.09 298.90
  Q 383.87 290.56 396.90 284.38
  Q 463.11 252.96 536.51 258.52
  Q 545.50 259.20 561.71 262.43
  Z"
/>
<path fill="#ff7f2d" d="
  M 607.47 275.11
  Q 617.89 279.91 627.84 284.72
  Q 637.63 289.45 645.43 294.23
  Q 666.75 307.29 681.96 320.53
  Q 688.70 326.40 698.91 337.47
  Q 705.47 344.57 711.75 352.79
  Q 723.01 367.53 729.82 378.02
  Q 754.41 415.87 763.12 462.35
  C 763.26 463.12 763.79 463.82 763.45 464.93
  C 760.70 473.85 754.60 481.90 748.88 489.14
  Q 746.72 491.87 743.43 493.60
  C 741.88 470.16 736.24 447.43 727.44 425.64
  C 714.77 394.25 693.36 364.14 668.36 341.89
  Q 631.79 309.34 584.47 294.45
  A 0.89 0.88 -57.5 0 1 584.14 292.95
  Q 590.77 286.97 598.04 281.30
  Q 602.08 278.15 607.47 275.11
  Z"
/>
<path fill="#fffff6" d="
  M 465.48 472.21
  Q 465.40 469.65 465.65 467.06
  Q 465.97 463.81 465.94 461.92
  Q 464.78 391.58 465.39 359.62
  Q 465.87 334.13 465.59 321.26
  L 492.61 316.98
  Q 493.22 316.88 493.22 317.49
  Q 493.25 367.74 493.20 418.00
  C 493.20 426.36 493.06 436.61 489.24 445.48
  C 484.61 456.24 475.07 465.32 465.48 472.21
  Z"
/>
<path fill="#31d8bb" d="
  M 679.05 402.17
  C 708.35 446.56 720.21 502.68 705.45 554.50
  Q 704.85 556.60 703.53 559.26
  Q 703.29 559.73 702.77 559.73
  L 527.41 559.70
  A 0.58 0.57 21.8 0 1 526.99 558.73
  C 537.52 547.72 545.29 535.27 550.52 520.74
  Q 566.26 477.04 550.60 433.36
  C 546.17 421.00 538.70 406.55 532.49 393.46
  Q 531.45 391.27 531.36 388.35
  Q 531.30 386.32 532.07 383.23
  C 537.58 361.24 545.20 339.31 559.39 321.32
  Q 559.70 320.92 560.19 321.04
  Q 615.42 334.11 655.60 373.93
  Q 669.48 387.68 679.05 402.17
  Z"
/>
<path fill="#eaefe9" d="
  M 465.59 321.26
  Q 465.87 334.13 465.39 359.62
  Q 464.78 391.58 465.94 461.92
  Q 465.97 463.81 465.65 467.06
  Q 465.40 469.65 465.48 472.21
  L 415.51 512.90
  Q 415.03 513.29 415.03 512.67
  Q 414.64 427.28 415.09 342.01
  C 415.10 340.45 414.79 339.72 416.40 338.87
  Q 439.91 326.51 465.59 321.26
  Z"
/>
<path fill="#31d8bb" d="
  M 330.31 592.11
  Q 306.69 540.47 313.47 483.75
  Q 314.33 476.52 317.99 461.92
  C 327.13 425.39 346.61 393.64 374.64 368.40
  Q 377.36 365.95 380.12 364.03
  A 0.59 0.59 0.0 0 1 381.04 364.51
  L 381.10 536.64
  A 3.00 2.98 -21.4 0 1 380.13 538.84
  Q 359.12 558.14 348.77 585.47
  Q 343.48 599.43 343.81 613.92
  A 0.58 0.58 0.0 0 1 342.75 614.26
  Q 335.45 603.37 330.31 592.11
  Z"
/>
<path fill="#ff7f2d" d="
  M 493.73 538.27
  L 493.60 495.86
  Q 505.17 486.87 512.99 474.68
  C 516.31 469.52 518.77 465.38 520.56 460.05
  Q 521.13 458.34 521.56 460.09
  C 529.15 490.89 515.82 517.29 493.73 538.27
  Z"
/>
<path fill="#ff7f2d" d="
  M 230.45 480.16
  Q 230.31 482.27 232.19 482.43
  A 1.08 1.06 -13.7 0 1 232.98 482.90
  Q 236.86 488.63 239.57 490.44
  Q 242.12 492.14 243.09 494.16
  C 244.15 496.36 245.75 497.01 246.88 498.30
  Q 249.12 500.87 251.22 503.56
  A 1.23 1.21 75.7 0 0 251.97 504.01
  C 253.26 504.24 253.75 505.05 253.76 506.36
  Q 254.10 536.11 259.92 565.21
  Q 261.90 575.09 264.86 584.58
  Q 275.16 617.55 291.82 644.41
  Q 302.68 661.91 320.87 682.88
  C 335.08 699.26 352.68 713.33 370.91 726.02
  Q 386.16 736.64 399.05 742.46
  C 407.23 746.16 415.55 750.24 423.74 753.09
  Q 449.16 761.95 473.50 766.22
  C 517.58 773.95 561.74 767.49 603.89 751.51
  Q 612.10 748.39 620.23 744.20
  C 627.35 740.52 634.71 736.83 641.26 732.83
  Q 668.83 715.97 691.17 693.66
  C 702.93 681.92 715.35 668.81 724.84 654.52
  C 730.11 646.57 735.82 638.68 739.98 630.37
  Q 748.22 613.91 754.69 596.67
  Q 757.88 588.17 760.40 577.55
  C 762.83 567.33 765.56 556.65 766.85 546.69
  Q 768.93 530.68 768.95 514.50
  C 768.95 511.57 769.24 507.42 771.59 504.96
  Q 778.89 497.31 786.30 489.83
  Q 786.66 489.47 786.79 488.99
  Q 787.31 487.22 788.81 486.23
  Q 789.27 485.93 789.33 485.38
  Q 789.54 483.57 791.30 482.54
  A 1.60 1.60 0.0 0 1 793.71 483.91
  L 794.07 528.23
  Q 793.18 548.91 788.56 569.12
  C 784.94 584.93 780.43 600.63 774.04 615.54
  C 757.11 655.09 732.75 690.53 700.69 719.46
  C 668.73 748.29 629.35 771.06 587.80 782.49
  Q 531.47 797.97 475.24 790.36
  C 423.23 783.32 371.32 761.08 330.84 726.57
  Q 267.43 672.52 241.68 593.06
  Q 224.02 538.58 230.45 480.16
  Z"
/>
<path fill="#ffb03c" d="
  M 493.60 495.86
  L 493.73 538.27
  L 402.27 618.41
  Q 401.18 618.53 401.18 618.26
  Q 401.83 598.25 401.76 578.25
  Q 401.75 574.26 400.69 571.51
  L 493.60 495.86
  Z"
/>
<path fill="#ff7f2d" d="
  M 400.69 571.51
  Q 401.75 574.26 401.76 578.25
  Q 401.83 598.25 401.18 618.26
  Q 401.18 618.53 402.27 618.41
  Q 389.37 629.83 380.27 644.34
  A 0.40 0.39 -35.3 0 1 379.55 644.22
  C 373.15 616.86 380.29 590.98 400.69 571.51
  Z"
/>
<path fill="#fffff6" d="
  M 674.19 622.19
  C 671.94 619.94 668.22 621.85 665.39 621.85
  Q 562.37 622.03 459.35 621.77
  Q 457.92 621.77 455.75 622.36
  Q 453.90 622.86 452.05 622.84
  L 491.36 587.42
  A 0.82 0.82 0.0 0 1 492.73 588.00
  L 492.93 593.39
  A 0.97 0.97 0.0 0 0 493.89 594.32
  L 691.49 594.47
  A 0.27 0.26 15.4 0 1 691.72 594.87
  C 689.78 598.18 688.01 601.76 685.90 604.89
  Q 680.02 613.58 674.19 622.19
  Z"
/>
<path fill="#eaefe9" d="
  M 674.19 622.19
  Q 673.10 624.64 671.41 626.66
  Q 665.76 633.44 655.09 644.36
  C 652.88 646.61 651.76 646.24 648.20 646.24
  Q 537.36 646.33 426.64 646.20
  A 0.29 0.29 0.0 0 1 426.45 645.69
  L 452.05 622.84
  Q 453.90 622.86 455.75 622.36
  Q 457.92 621.77 459.35 621.77
  Q 562.37 622.03 665.39 621.85
  C 668.22 621.85 671.94 619.94 674.19 622.19
  Z"
/>
<path fill="#31d8bb" d="
  M 407.04 679.66
  L 616.03 679.78
  A 0.38 0.38 0.0 0 1 616.25 680.47
  C 613.12 682.76 609.34 684.66 606.33 686.34
  C 587.83 696.63 566.90 705.09 545.90 708.24
  Q 515.49 712.80 484.75 709.21
  C 457.06 705.97 430.29 694.91 406.98 679.87
  Q 406.65 679.66 407.04 679.66
  Z"
/>
</svg>
